<mxfile host="app.diagrams.net" agent="Mozilla/5.0 (Windows NT 10.0; Win64; x64) AppleWebKit/537.36 (KHTML, like Gecko) Chrome/129.0.0.0 Safari/537.36" version="24.7.17">
  <diagram name="Page-1" id="5f0bae14-7c28-e335-631c-24af17079c00">
    <mxGraphModel dx="1723" dy="939" grid="0" gridSize="10" guides="1" tooltips="1" connect="1" arrows="1" fold="1" page="1" pageScale="1" pageWidth="1100" pageHeight="850" background="#ffffff" math="0" shadow="0">
      <root>
        <mxCell id="0" />
        <mxCell id="1" parent="0" />
        <mxCell id="_BFgc3GrXdV0n76EuO6j-55" style="edgeStyle=orthogonalEdgeStyle;rounded=0;orthogonalLoop=1;jettySize=auto;html=1;exitX=1;exitY=0.25;exitDx=0;exitDy=0;entryX=0.5;entryY=0;entryDx=0;entryDy=0;" edge="1" parent="1" source="_BFgc3GrXdV0n76EuO6j-1" target="_BFgc3GrXdV0n76EuO6j-5">
          <mxGeometry relative="1" as="geometry" />
        </mxCell>
        <mxCell id="_BFgc3GrXdV0n76EuO6j-1" value="Frontend" style="rounded=1;whiteSpace=wrap;html=1;" vertex="1" parent="1">
          <mxGeometry x="470" y="20" width="120" height="60" as="geometry" />
        </mxCell>
        <mxCell id="_BFgc3GrXdV0n76EuO6j-20" style="edgeStyle=orthogonalEdgeStyle;rounded=0;orthogonalLoop=1;jettySize=auto;html=1;exitX=0.5;exitY=0;exitDx=0;exitDy=0;entryX=1;entryY=0.5;entryDx=0;entryDy=0;" edge="1" parent="1" source="_BFgc3GrXdV0n76EuO6j-2" target="_BFgc3GrXdV0n76EuO6j-9">
          <mxGeometry relative="1" as="geometry">
            <Array as="points">
              <mxPoint x="290" y="700" />
              <mxPoint x="290" y="640" />
              <mxPoint x="440" y="640" />
              <mxPoint x="440" y="550" />
            </Array>
          </mxGeometry>
        </mxCell>
        <mxCell id="_BFgc3GrXdV0n76EuO6j-21" style="edgeStyle=orthogonalEdgeStyle;rounded=0;orthogonalLoop=1;jettySize=auto;html=1;exitX=0.25;exitY=0;exitDx=0;exitDy=0;entryX=0;entryY=0.5;entryDx=0;entryDy=0;" edge="1" parent="1" source="_BFgc3GrXdV0n76EuO6j-2" target="_BFgc3GrXdV0n76EuO6j-8">
          <mxGeometry relative="1" as="geometry" />
        </mxCell>
        <mxCell id="_BFgc3GrXdV0n76EuO6j-2" value="Backend" style="rounded=1;whiteSpace=wrap;html=1;" vertex="1" parent="1">
          <mxGeometry x="200" y="700" width="120" height="60" as="geometry" />
        </mxCell>
        <mxCell id="_BFgc3GrXdV0n76EuO6j-57" style="edgeStyle=orthogonalEdgeStyle;rounded=0;orthogonalLoop=1;jettySize=auto;html=1;exitX=0.25;exitY=0;exitDx=0;exitDy=0;entryX=1;entryY=0.5;entryDx=0;entryDy=0;" edge="1" parent="1" source="_BFgc3GrXdV0n76EuO6j-3" target="_BFgc3GrXdV0n76EuO6j-11">
          <mxGeometry relative="1" as="geometry" />
        </mxCell>
        <mxCell id="_BFgc3GrXdV0n76EuO6j-58" style="edgeStyle=orthogonalEdgeStyle;rounded=0;orthogonalLoop=1;jettySize=auto;html=1;exitX=0.75;exitY=0;exitDx=0;exitDy=0;entryX=0;entryY=0.5;entryDx=0;entryDy=0;" edge="1" parent="1" source="_BFgc3GrXdV0n76EuO6j-3" target="_BFgc3GrXdV0n76EuO6j-12">
          <mxGeometry relative="1" as="geometry" />
        </mxCell>
        <mxCell id="_BFgc3GrXdV0n76EuO6j-3" value="SQL DB" style="rounded=1;whiteSpace=wrap;html=1;" vertex="1" parent="1">
          <mxGeometry x="740" y="700" width="120" height="60" as="geometry" />
        </mxCell>
        <mxCell id="_BFgc3GrXdV0n76EuO6j-60" style="edgeStyle=orthogonalEdgeStyle;rounded=0;orthogonalLoop=1;jettySize=auto;html=1;exitX=1;exitY=1;exitDx=0;exitDy=0;entryX=0.5;entryY=0;entryDx=0;entryDy=0;" edge="1" parent="1" source="_BFgc3GrXdV0n76EuO6j-4" target="_BFgc3GrXdV0n76EuO6j-6">
          <mxGeometry relative="1" as="geometry" />
        </mxCell>
        <mxCell id="_BFgc3GrXdV0n76EuO6j-61" style="edgeStyle=orthogonalEdgeStyle;rounded=0;orthogonalLoop=1;jettySize=auto;html=1;exitX=0;exitY=1;exitDx=0;exitDy=0;" edge="1" parent="1" source="_BFgc3GrXdV0n76EuO6j-4" target="_BFgc3GrXdV0n76EuO6j-7">
          <mxGeometry relative="1" as="geometry" />
        </mxCell>
        <mxCell id="_BFgc3GrXdV0n76EuO6j-4" value="Welcome Page" style="rounded=0;whiteSpace=wrap;html=1;" vertex="1" parent="1">
          <mxGeometry x="240" y="130" width="120" height="60" as="geometry" />
        </mxCell>
        <mxCell id="_BFgc3GrXdV0n76EuO6j-59" style="edgeStyle=orthogonalEdgeStyle;rounded=0;orthogonalLoop=1;jettySize=auto;html=1;exitX=0;exitY=0.5;exitDx=0;exitDy=0;" edge="1" parent="1" source="_BFgc3GrXdV0n76EuO6j-5" target="_BFgc3GrXdV0n76EuO6j-4">
          <mxGeometry relative="1" as="geometry" />
        </mxCell>
        <mxCell id="_BFgc3GrXdV0n76EuO6j-5" value="Login/Signup Page" style="rounded=0;whiteSpace=wrap;html=1;" vertex="1" parent="1">
          <mxGeometry x="880" y="130" width="120" height="60" as="geometry" />
        </mxCell>
        <mxCell id="_BFgc3GrXdV0n76EuO6j-6" value="Patient Dashbaord" style="rounded=0;whiteSpace=wrap;html=1;" vertex="1" parent="1">
          <mxGeometry x="370" y="230" width="120" height="60" as="geometry" />
        </mxCell>
        <mxCell id="_BFgc3GrXdV0n76EuO6j-7" value="AI Chatbot Page" style="rounded=0;whiteSpace=wrap;html=1;" vertex="1" parent="1">
          <mxGeometry x="110" y="230" width="120" height="60" as="geometry" />
        </mxCell>
        <mxCell id="_BFgc3GrXdV0n76EuO6j-8" value="AI Chatbot" style="rounded=0;whiteSpace=wrap;html=1;fillColor=#a0522d;strokeColor=#6D1F00;fontColor=#ffffff;" vertex="1" parent="1">
          <mxGeometry x="100" y="520" width="120" height="60" as="geometry" />
        </mxCell>
        <mxCell id="_BFgc3GrXdV0n76EuO6j-9" value="Node.js" style="rounded=0;whiteSpace=wrap;html=1;fillColor=#d0cee2;strokeColor=#56517e;" vertex="1" parent="1">
          <mxGeometry x="300" y="520" width="120" height="60" as="geometry" />
        </mxCell>
        <mxCell id="_BFgc3GrXdV0n76EuO6j-11" value="Patient Data" style="rounded=0;whiteSpace=wrap;html=1;fillColor=#dae8fc;strokeColor=#6c8ebf;" vertex="1" parent="1">
          <mxGeometry x="580" y="560" width="120" height="60" as="geometry" />
        </mxCell>
        <mxCell id="_BFgc3GrXdV0n76EuO6j-12" value="User Credentials" style="rounded=0;whiteSpace=wrap;html=1;fillColor=#d5e8d4;strokeColor=#82b366;" vertex="1" parent="1">
          <mxGeometry x="900" y="560" width="120" height="60" as="geometry" />
        </mxCell>
        <mxCell id="_BFgc3GrXdV0n76EuO6j-29" value="" style="endArrow=classic;html=1;rounded=0;exitX=0.5;exitY=1;exitDx=0;exitDy=0;entryX=0.75;entryY=0;entryDx=0;entryDy=0;fillColor=#d5e8d4;strokeColor=#82b366;" edge="1" parent="1" source="_BFgc3GrXdV0n76EuO6j-5" target="_BFgc3GrXdV0n76EuO6j-12">
          <mxGeometry relative="1" as="geometry">
            <mxPoint x="400" y="360" as="sourcePoint" />
            <mxPoint x="500" y="360" as="targetPoint" />
          </mxGeometry>
        </mxCell>
        <mxCell id="_BFgc3GrXdV0n76EuO6j-30" value="New User" style="edgeLabel;resizable=0;html=1;;align=center;verticalAlign=middle;" connectable="0" vertex="1" parent="_BFgc3GrXdV0n76EuO6j-29">
          <mxGeometry relative="1" as="geometry" />
        </mxCell>
        <mxCell id="_BFgc3GrXdV0n76EuO6j-32" value="" style="endArrow=classic;html=1;rounded=0;exitX=0;exitY=1;exitDx=0;exitDy=0;entryX=0.864;entryY=0.09;entryDx=0;entryDy=0;entryPerimeter=0;fillColor=#d0cee2;strokeColor=#56517e;" edge="1" parent="1" source="_BFgc3GrXdV0n76EuO6j-5" target="_BFgc3GrXdV0n76EuO6j-9">
          <mxGeometry relative="1" as="geometry">
            <mxPoint x="320" y="400" as="sourcePoint" />
            <mxPoint x="420" y="400" as="targetPoint" />
          </mxGeometry>
        </mxCell>
        <mxCell id="_BFgc3GrXdV0n76EuO6j-37" value="Login" style="edgeLabel;html=1;align=center;verticalAlign=middle;resizable=0;points=[];" vertex="1" connectable="0" parent="_BFgc3GrXdV0n76EuO6j-32">
          <mxGeometry x="0.0164" relative="1" as="geometry">
            <mxPoint x="9" y="-31" as="offset" />
          </mxGeometry>
        </mxCell>
        <mxCell id="_BFgc3GrXdV0n76EuO6j-34" value="" style="endArrow=classic;html=1;rounded=0;exitX=0.875;exitY=0.09;exitDx=0;exitDy=0;exitPerimeter=0;entryX=0.25;entryY=0;entryDx=0;entryDy=0;fillColor=#d5e8d4;strokeColor=#82b366;" edge="1" parent="1" source="_BFgc3GrXdV0n76EuO6j-9" target="_BFgc3GrXdV0n76EuO6j-12">
          <mxGeometry relative="1" as="geometry">
            <mxPoint x="400" y="360" as="sourcePoint" />
            <mxPoint x="500" y="360" as="targetPoint" />
            <Array as="points" />
          </mxGeometry>
        </mxCell>
        <mxCell id="_BFgc3GrXdV0n76EuO6j-35" value="Extract" style="edgeLabel;resizable=0;html=1;;align=center;verticalAlign=middle;" connectable="0" vertex="1" parent="_BFgc3GrXdV0n76EuO6j-34">
          <mxGeometry relative="1" as="geometry">
            <mxPoint x="113" y="7" as="offset" />
          </mxGeometry>
        </mxCell>
        <mxCell id="_BFgc3GrXdV0n76EuO6j-39" value="" style="endArrow=classic;html=1;rounded=0;exitX=0.25;exitY=1;exitDx=0;exitDy=0;entryX=0.25;entryY=0;entryDx=0;entryDy=0;fillColor=#dae8fc;strokeColor=#6c8ebf;" edge="1" parent="1" source="_BFgc3GrXdV0n76EuO6j-6" target="_BFgc3GrXdV0n76EuO6j-11">
          <mxGeometry relative="1" as="geometry">
            <mxPoint x="640" y="360" as="sourcePoint" />
            <mxPoint x="740" y="360" as="targetPoint" />
          </mxGeometry>
        </mxCell>
        <mxCell id="_BFgc3GrXdV0n76EuO6j-40" value="Request" style="edgeLabel;resizable=0;html=1;;align=center;verticalAlign=middle;" connectable="0" vertex="1" parent="_BFgc3GrXdV0n76EuO6j-39">
          <mxGeometry relative="1" as="geometry">
            <mxPoint x="-20" y="-36" as="offset" />
          </mxGeometry>
        </mxCell>
        <mxCell id="_BFgc3GrXdV0n76EuO6j-41" value="" style="endArrow=classic;html=1;rounded=0;exitX=0.75;exitY=0;exitDx=0;exitDy=0;entryX=0.75;entryY=1;entryDx=0;entryDy=0;fillColor=#dae8fc;strokeColor=#6c8ebf;" edge="1" parent="1" source="_BFgc3GrXdV0n76EuO6j-11" target="_BFgc3GrXdV0n76EuO6j-6">
          <mxGeometry relative="1" as="geometry">
            <mxPoint x="640" y="360" as="sourcePoint" />
            <mxPoint x="740" y="360" as="targetPoint" />
          </mxGeometry>
        </mxCell>
        <mxCell id="_BFgc3GrXdV0n76EuO6j-42" value="Response" style="edgeLabel;resizable=0;html=1;;align=center;verticalAlign=middle;" connectable="0" vertex="1" parent="_BFgc3GrXdV0n76EuO6j-41">
          <mxGeometry relative="1" as="geometry">
            <mxPoint x="40" y="50" as="offset" />
          </mxGeometry>
        </mxCell>
        <mxCell id="_BFgc3GrXdV0n76EuO6j-43" value="" style="endArrow=classic;html=1;rounded=0;exitX=0.25;exitY=0;exitDx=0;exitDy=0;entryX=0.25;entryY=1;entryDx=0;entryDy=0;fillColor=#d5e8d4;strokeColor=#82b366;" edge="1" parent="1" source="_BFgc3GrXdV0n76EuO6j-12" target="_BFgc3GrXdV0n76EuO6j-5">
          <mxGeometry relative="1" as="geometry">
            <mxPoint x="640" y="360" as="sourcePoint" />
            <mxPoint x="600" y="450" as="targetPoint" />
          </mxGeometry>
        </mxCell>
        <mxCell id="_BFgc3GrXdV0n76EuO6j-44" value="JWT Token" style="edgeLabel;resizable=0;html=1;;align=center;verticalAlign=middle;" connectable="0" vertex="1" parent="_BFgc3GrXdV0n76EuO6j-43">
          <mxGeometry relative="1" as="geometry">
            <mxPoint x="-20" y="-36" as="offset" />
          </mxGeometry>
        </mxCell>
        <mxCell id="_BFgc3GrXdV0n76EuO6j-48" value="Past Data" style="swimlane;fontStyle=0;childLayout=stackLayout;horizontal=1;startSize=30;horizontalStack=0;resizeParent=1;resizeParentMax=0;resizeLast=0;collapsible=1;marginBottom=0;whiteSpace=wrap;html=1;" vertex="1" parent="1">
          <mxGeometry x="570" y="700" width="140" height="120" as="geometry" />
        </mxCell>
        <mxCell id="_BFgc3GrXdV0n76EuO6j-49" value="Heart Rate" style="text;strokeColor=none;fillColor=none;align=left;verticalAlign=middle;spacingLeft=4;spacingRight=4;overflow=hidden;points=[[0,0.5],[1,0.5]];portConstraint=eastwest;rotatable=0;whiteSpace=wrap;html=1;" vertex="1" parent="_BFgc3GrXdV0n76EuO6j-48">
          <mxGeometry y="30" width="140" height="30" as="geometry" />
        </mxCell>
        <mxCell id="_BFgc3GrXdV0n76EuO6j-50" value="Weight" style="text;strokeColor=none;fillColor=none;align=left;verticalAlign=middle;spacingLeft=4;spacingRight=4;overflow=hidden;points=[[0,0.5],[1,0.5]];portConstraint=eastwest;rotatable=0;whiteSpace=wrap;html=1;" vertex="1" parent="_BFgc3GrXdV0n76EuO6j-48">
          <mxGeometry y="60" width="140" height="30" as="geometry" />
        </mxCell>
        <mxCell id="_BFgc3GrXdV0n76EuO6j-51" value="Temperature" style="text;strokeColor=none;fillColor=none;align=left;verticalAlign=middle;spacingLeft=4;spacingRight=4;overflow=hidden;points=[[0,0.5],[1,0.5]];portConstraint=eastwest;rotatable=0;whiteSpace=wrap;html=1;" vertex="1" parent="_BFgc3GrXdV0n76EuO6j-48">
          <mxGeometry y="90" width="140" height="30" as="geometry" />
        </mxCell>
        <mxCell id="_BFgc3GrXdV0n76EuO6j-52" value="" style="endArrow=classic;html=1;rounded=0;exitX=0.5;exitY=1;exitDx=0;exitDy=0;entryX=0.5;entryY=0;entryDx=0;entryDy=0;" edge="1" parent="1" source="_BFgc3GrXdV0n76EuO6j-11" target="_BFgc3GrXdV0n76EuO6j-48">
          <mxGeometry width="50" height="50" relative="1" as="geometry">
            <mxPoint x="580" y="380" as="sourcePoint" />
            <mxPoint x="630" y="330" as="targetPoint" />
          </mxGeometry>
        </mxCell>
        <mxCell id="_BFgc3GrXdV0n76EuO6j-65" value="" style="endArrow=classic;html=1;rounded=0;exitX=0.75;exitY=1;exitDx=0;exitDy=0;entryX=0.824;entryY=0.015;entryDx=0;entryDy=0;entryPerimeter=0;fillColor=#a0522d;strokeColor=#6D1F00;" edge="1" parent="1" source="_BFgc3GrXdV0n76EuO6j-7" target="_BFgc3GrXdV0n76EuO6j-8">
          <mxGeometry relative="1" as="geometry">
            <mxPoint x="760" y="400" as="sourcePoint" />
            <mxPoint x="860" y="400" as="targetPoint" />
          </mxGeometry>
        </mxCell>
        <mxCell id="_BFgc3GrXdV0n76EuO6j-66" value="Get" style="edgeLabel;resizable=0;html=1;;align=center;verticalAlign=middle;" connectable="0" vertex="1" parent="_BFgc3GrXdV0n76EuO6j-65">
          <mxGeometry relative="1" as="geometry" />
        </mxCell>
        <mxCell id="_BFgc3GrXdV0n76EuO6j-69" value="" style="endArrow=classic;html=1;rounded=0;exitX=0.25;exitY=0;exitDx=0;exitDy=0;entryX=0.163;entryY=1.018;entryDx=0;entryDy=0;entryPerimeter=0;fillColor=#a0522d;strokeColor=#6D1F00;" edge="1" parent="1" source="_BFgc3GrXdV0n76EuO6j-8" target="_BFgc3GrXdV0n76EuO6j-7">
          <mxGeometry relative="1" as="geometry">
            <mxPoint x="760" y="400" as="sourcePoint" />
            <mxPoint x="860" y="400" as="targetPoint" />
          </mxGeometry>
        </mxCell>
        <mxCell id="_BFgc3GrXdV0n76EuO6j-70" value="Response" style="edgeLabel;resizable=0;html=1;;align=center;verticalAlign=middle;" connectable="0" vertex="1" parent="_BFgc3GrXdV0n76EuO6j-69">
          <mxGeometry relative="1" as="geometry" />
        </mxCell>
        <mxCell id="_BFgc3GrXdV0n76EuO6j-71" value="Hosted on Netlify" style="rounded=1;whiteSpace=wrap;html=1;gradientColor=none;fillColor=none;dashed=1;verticalAlign=top;" vertex="1" parent="1">
          <mxGeometry x="440" width="180" height="110" as="geometry" />
        </mxCell>
        <mxCell id="_BFgc3GrXdV0n76EuO6j-74" value="React, HTML, CSS, JavaScript" style="text;html=1;align=center;verticalAlign=middle;whiteSpace=wrap;rounded=0;" vertex="1" parent="1">
          <mxGeometry x="430" y="80" width="200" height="30" as="geometry" />
        </mxCell>
      </root>
    </mxGraphModel>
  </diagram>
</mxfile>
